<?xml version="1.0" encoding="UTF-8" standalone="no"?>
<svg
   xmlns:dc="http://purl.org/dc/elements/1.1/"
   xmlns:cc="http://creativecommons.org/ns#"
   xmlns:rdf="http://www.w3.org/1999/02/22-rdf-syntax-ns#"
   xmlns:svg="http://www.w3.org/2000/svg"
   xmlns="http://www.w3.org/2000/svg"
   version="1.0"
   width="18"
   height="18"
   viewBox="0 0 18 18"
   preserveAspectRatio="xMidYMid meet"
   id="svg1455">
  <metadata
     id="metadata1461">
    <rdf:RDF>
      <cc:Work
         rdf:about="">
        <dc:format>image/svg+xml</dc:format>
        <dc:type
           rdf:resource="http://purl.org/dc/dcmitype/StillImage" />
        <dc:title></dc:title>
      </cc:Work>
    </rdf:RDF>
  </metadata>
  <defs
     id="defs1459" />
  <style
     type="text/css"
     id="style1443">
	.st0{fill:#0085CA;}
</style>
  <g
     transform="matrix(0.009,0,0,-0.009,0,18)"
     fill="#000000"
     stroke="none"
     id="g1453">
    <path
       class="st0"
       d="M 0,1000 V 0 H 1000 2000 V 1000 2000 H 1000 0 Z m 1790,0 V 210 H 1000 210 v 790 790 h 790 790 z"
       id="path1445" />
    <path
       class="st0"
       d="m 1424,1601 c -31,-13 -61,-55 -68,-95 -20,-105 99,-182 192,-126 68,42 79,129 23,192 -22,25 -36,31 -77,34 -27,2 -59,0 -70,-5 z"
       id="path1447" />
    <path
       class="st0"
       d="m 390,1133 c 0,-368 4,-402 50,-497 31,-66 93,-124 168,-159 64,-31 73,-32 187,-32 101,1 129,4 177,24 109,43 200,151 227,272 6,25 11,194 11,392 v 347 h -99 -100 l -3,-342 C 1005,834 1003,790 987,755 951,674 897,638 811,637 708,636 651,671 613,755 c -15,35 -18,82 -21,383 l -4,342 h -99 -99 z"
       id="path1449" />
    <path
       class="st0"
       d="M 1380,855 V 450 h 100 100 v 405 405 h -100 -100 z"
       id="path1451" />
  </g>
</svg>
