<?xml version="1.0" encoding="UTF-8" standalone="no"?>
<svg
   xmlns:dc="http://purl.org/dc/elements/1.1/"
   xmlns:cc="http://creativecommons.org/ns#"
   xmlns:rdf="http://www.w3.org/1999/02/22-rdf-syntax-ns#"
   xmlns:svg="http://www.w3.org/2000/svg"
   xmlns="http://www.w3.org/2000/svg"
   version="1.0"
   id="katman_1"
   x="0px"
   y="0px"
   viewBox="0 0 18 18"
   xml:space="preserve"
   width="18"
   height="18"><metadata
   id="metadata873"><rdf:RDF><cc:Work
       rdf:about=""><dc:format>image/svg+xml</dc:format><dc:type
         rdf:resource="http://purl.org/dc/dcmitype/StillImage" /><dc:title></dc:title></cc:Work></rdf:RDF></metadata><defs
   id="defs871" />
<style
   type="text/css"
   id="style860">
	.st0{fill:#0085CA;}
</style>
<g
   id="g866"
   transform="matrix(0.00968627,0,0,0.00968627,-6.6764499,-2.5113737)">
	<path
   class="st0"
   d="M 2530,2058.7 V 313.3 c 0,-28.2 -22.2,-56.5 -55.6,-56.5 H 761.6 c -33.4,0 -55.6,22.6 -55.6,56.5 v 1745.3 c 0,28.3 22.3,56.5 55.6,56.5 h 1712.8 c 33.3,0 55.6,-28.2 55.6,-56.4 z m -72.3,-17 H 778.3 V 330.3 h 1679.4 z"
   id="path862" />
	<path
   class="st0"
   d="m 1401.1,1765 c 250.2,0 411.5,-141.3 411.5,-508.4 V 635.3 h -183.5 v 638.2 c 0,242.9 -94.5,322 -228,322 -133.5,0 -216.9,-79.1 -216.9,-322 V 640.9 H 989.6 v 621.4 c 0,361.5 161.3,502.7 411.5,502.7 z m 756.3,-977.2 c 66.8,0 116.8,-45.2 116.8,-107.3 0,-67.8 -50,-113 -116.8,-113 -66.8,0 -116.8,45.2 -116.8,113 0,62.1 50.1,107.3 116.8,107.3 z m 94.5,146.8 H 2062.8 V 1765 h 189.1 z"
   id="path864" />
</g>
</svg>
